<?xml version="1.0" encoding="UTF-8" standalone="no" ?>
<!DOCTYPE svg PUBLIC "-//W3C//DTD SVG 1.1//EN" "http://www.w3.org/Graphics/SVG/1.1/DTD/svg11.dtd">
<svg xmlns="http://www.w3.org/2000/svg" xmlns:xlink="http://www.w3.org/1999/xlink" version="1.1" width="100" height="100" viewBox="0 0 100 100" xml:space="preserve">
<desc>Created with Fabric.js 5.3.0</desc>
<defs>
</defs>
<g transform="matrix(1 0 0 1 47.972972973 57.4329324324)" id="s6bKiEPjJ8K7mtDYpybO5"  >
<path style="stroke: rgb(0,0,0); stroke-width: 1; stroke-dasharray: none; stroke-linecap: round; stroke-dashoffset: 0; stroke-linejoin: round; stroke-miterlimit: 10; fill: none; fill-rule: nonzero; opacity: 1;"  transform=" translate(-47.972972973, -57.4329324324)" d="M 1.1251261261261098 66.10360360360363 Q 1.1261261261261097 66.10360360360363 1.2387387387387179 66.10360360360363 Q 1.351351351351326 66.10360360360363 1.5765765765765565 66.10360360360363 Q 1.801801801801787 66.10360360360363 2.364864864864856 66.10360360360363 Q 2.927927927927925 66.10360360360363 3.7162162162162105 65.8783783783784 Q 4.504504504504496 65.65315315315317 5.292792792792781 65.42792792792795 Q 6.0810810810810665 65.20270270270272 6.531531531531513 65.09009009009011 Q 6.98198198198196 64.9774774774775 7.319819819819799 64.75225225225228 Q 7.657657657657637 64.52702702702705 7.995495495495476 64.30180180180182 Q 8.333333333333314 64.0765765765766 8.558558558558545 63.851351351351376 Q 8.783783783783775 63.62612612612615 9.121621621621614 63.51351351351354 Q 9.459459459459453 63.40090090090092 9.684684684684669 63.1756756756757 Q 9.909909909909885 62.950450450450475 10.022522522522507 62.72522522522525 Q 10.13513513513513 62.50000000000003 10.360360360360346 62.16216216216219 Q 10.585585585585562 61.82432432432435 11.036036036036023 61.48648648648651 Q 11.486486486486484 61.148648648648674 11.7117117117117 60.69819819819822 Q 11.936936936936917 60.247747747747766 12.274774774774755 59.90990990990993 Q 12.612612612612594 59.57207207207209 12.837837837837824 59.12162162162164 Q 13.063063063063055 58.671171171171196 13.288288288288271 58.44594594594597 Q 13.513513513513487 58.22072072072075 13.738738738738718 57.99549549549552 Q 13.963963963963948 57.77027027027029 14.076576576576556 57.207207207207226 Q 14.189189189189165 56.644144144144164 14.527027027027003 56.41891891891894 Q 14.864864864864842 56.19369369369372 15.090090090090072 55.630630630630655 Q 15.315315315315303 55.06756756756759 15.427927927927911 54.729729729729755 Q 15.540540540540519 54.391891891891916 15.76576576576575 54.16666666666669 Q 15.99099099099098 53.94144144144147 16.32882882882882 53.490990990991016 Q 16.666666666666657 53.04054054054056 16.891891891891873 52.70270270270272 Q 17.11711711711709 52.364864864864884 17.229729729729712 51.91441441441444 Q 17.342342342342334 51.46396396396399 17.56756756756755 51.23873873873877 Q 17.792792792792767 51.013513513513544 17.90540540540539 50.788288288288314 Q 18.01801801801801 50.56306306306308 18.35585585585585 50.33783783783786 Q 18.69369369369369 50.11261261261264 18.806306306306297 49.7747747747748 Q 18.918918918918905 49.43693693693696 19.031531531531513 49.211711711711736 Q 19.14414414414412 48.98648648648651 19.369369369369352 48.648648648648674 Q 19.594594594594582 48.310810810810835 19.70720720720719 47.972972972973 Q 19.8198198198198 47.63513513513516 19.93243243243242 47.409909909909935 Q 20.045045045045043 47.18468468468471 20.382882882882868 46.95945945945949 Q 20.720720720720692 46.734234234234265 20.833333333333314 46.509009009009034 Q 20.945945945945937 46.283783783783804 21.171171171171153 45.945945945945965 Q 21.39639639639637 45.60810810810813 21.6216216216216 45.270270270270295 Q 21.84684684684683 44.93243243243246 22.18468468468467 44.70720720720723 Q 22.522522522522507 44.481981981982 22.635135135135116 44.144144144144164 Q 22.747747747747724 43.806306306306325 22.860360360360346 43.5810810810811 Q 22.97297297297297 43.35585585585588 23.310810810810807 43.01801801801804 Q 23.648648648648646 42.6801801801802 23.873873873873862 42.56756756756759 Q 24.099099099099078 42.454954954954985 24.211711711711686 42.229729729729755 Q 24.324324324324294 42.004504504504524 24.549549549549525 41.7792792792793 Q 24.774774774774755 41.55405405405408 24.887387387387363 41.44144144144147 Q 24.99999999999997 41.32882882882886 25.112612612612594 41.10360360360363 Q 25.225225225225216 40.8783783783784 25.563063063063055 40.76576576576579 Q 25.900900900900893 40.653153153153184 26.0135135135135 40.42792792792795 Q 26.12612612612611 40.20270270270272 26.238738738738718 40.090090090090115 Q 26.351351351351326 39.97747747747751 26.46396396396395 39.86486486486489 Q 26.57657657657657 39.752252252252276 26.68918918918918 39.752252252252276 Q 26.801801801801787 39.752252252252276 26.914414414414395 39.63963963963967 Q 27.027027027027003 39.52702702702706 27.477477477477464 39.414414414414445 Q 27.927927927927925 39.30180180180183 28.040540540540533 39.189189189189214 Q 28.15315315315314 39.0765765765766 28.378378378378358 38.96396396396399 Q 28.603603603603574 38.85135135135138 28.828828828828804 38.62612612612615 Q 29.054054054054035 38.40090090090092 29.391891891891873 38.288288288288314 Q 29.729729729729712 38.175675675675706 29.84234234234232 38.06306306306309 Q 29.95495495495493 37.950450450450475 30.18018018018016 37.83783783783786 Q 30.40540540540539 37.725225225225245 30.63063063063062 37.61261261261264 Q 30.85585585585585 37.50000000000003 31.19369369369369 37.38738738738741 Q 31.531531531531527 37.2747747747748 31.869369369369352 37.2747747747748 Q 32.207207207207176 37.2747747747748 32.43243243243241 37.16216216216219 Q 32.65765765765764 37.04954954954958 32.995495495495476 36.82432432432435 Q 33.333333333333314 36.59909909909912 33.558558558558545 36.59909909909912 Q 33.783783783783775 36.59909909909912 33.89639639639638 36.59909909909912 Q 34.00900900900899 36.59909909909912 34.1216216216216 36.48648648648651 Q 34.23423423423421 36.373873873873904 34.34684684684683 36.373873873873904 Q 34.45945945945945 36.373873873873904 34.57207207207206 36.373873873873904 Q 34.68468468468467 36.373873873873904 34.79729729729728 36.373873873873904 Q 34.909909909909885 36.373873873873904 35.135135135135116 36.373873873873904 Q 35.360360360360346 36.373873873873904 35.698198198198185 36.373873873873904 Q 36.03603603603602 36.373873873873904 36.37387387387386 36.373873873873904 Q 36.7117117117117 36.373873873873904 37.16216216216215 36.373873873873904 Q 37.612612612612594 36.373873873873904 37.837837837837824 36.59909909909913 Q 38.063063063063055 36.82432432432435 38.5135135135135 36.82432432432435 Q 38.96396396396395 36.82432432432435 39.30180180180179 36.936936936936966 Q 39.639639639639626 37.04954954954958 39.752252252252234 37.04954954954958 Q 39.86486486486484 37.04954954954958 39.977477477477464 37.04954954954958 Q 40.09009009009009 37.04954954954958 40.42792792792791 37.04954954954958 Q 40.765765765765735 37.04954954954958 40.87837837837836 37.16216216216219 Q 40.99099099099098 37.2747747747748 41.216216216216196 37.2747747747748 Q 41.44144144144141 37.2747747747748 41.554054054054035 37.2747747747748 Q 41.66666666666666 37.2747747747748 41.89189189189187 37.38738738738741 Q 42.11711711711709 37.50000000000003 42.45495495495493 37.61261261261264 Q 42.79279279279277 37.725225225225245 43.018018018018 37.83783783783786 Q 43.24324324324323 37.950450450450475 43.58108108108107 38.06306306306309 Q 43.918918918918905 38.175675675675706 44.36936936936935 38.513513513513544 Q 44.8198198198198 38.85135135135138 45.15765765765764 38.96396396396399 Q 45.495495495495476 39.0765765765766 45.720720720720706 39.30180180180183 Q 45.94594594594594 39.52702702702706 46.39639639639638 39.75225225225228 Q 46.84684684684683 39.97747747747751 47.18468468468467 40.42792792792795 Q 47.52252252252251 40.8783783783784 47.860360360360346 40.990990990991016 Q 48.198198198198185 41.10360360360363 48.31081081081079 41.328828828828854 Q 48.4234234234234 41.55405405405408 48.53603603603601 41.66666666666669 Q 48.64864864864862 41.77927927927931 48.87387387387385 42.00450450450453 Q 49.09909909909908 42.229729729729755 49.211711711711686 42.229729729729755 Q 49.324324324324294 42.229729729729755 49.549549549549525 42.45495495495498 Q 49.774774774774755 42.6801801801802 50.112612612612594 42.79279279279282 Q 50.45045045045043 42.90540540540543 50.56306306306304 43.01801801801805 Q 50.67567567567565 43.13063063063066 50.78828828828827 43.24324324324327 Q 50.90090090090089 43.35585585585588 51.12612612612611 43.5810810810811 Q 51.351351351351326 43.806306306306325 51.689189189189165 44.144144144144164 Q 52.027027027027 44.481981981982 52.13963963963961 44.59459459459462 Q 52.25225225225222 44.70720720720723 52.36486486486484 44.81981981981985 Q 52.477477477477464 44.93243243243246 52.70270270270268 45.15765765765769 Q 52.9279279279279 45.38288288288291 53.15315315315313 45.72072072072075 Q 53.37837837837836 46.05855855855859 53.60360360360359 46.28378378378381 Q 53.82882882882882 46.509009009009034 54.054054054054035 46.62162162162165 Q 54.27927927927925 46.734234234234265 54.39189189189187 46.84684684684687 Q 54.504504504504496 46.95945945945948 54.617117117117104 47.409909909909935 Q 54.72972972972971 47.86036036036039 54.84234234234232 47.972972972973 Q 54.95495495495493 48.085585585585605 55.18018018018016 48.310810810810835 Q 55.40540540540539 48.536036036036066 55.74324324324323 48.76126126126129 Q 56.08108108108107 48.98648648648651 56.193693693693675 49.32432432432435 Q 56.30630630630628 49.66216216216219 56.41891891891889 49.7747747747748 Q 56.5315315315315 49.887387387387406 56.64414414414412 50.00000000000002 Q 56.756756756756744 50.11261261261264 56.86936936936935 50.33783783783786 Q 56.98198198198196 50.56306306306308 57.09459459459457 50.6756756756757 Q 57.207207207207176 50.788288288288314 57.545045045045015 51.23873873873876 Q 57.88288288288285 51.68918918918921 57.995495495495476 51.80180180180182 Q 58.1081081081081 51.91441441441444 58.220720720720706 52.252252252252276 Q 58.333333333333314 52.590090090090115 58.44594594594592 52.70270270270273 Q 58.55855855855853 52.815315315315345 58.78378378378376 53.153153153153184 Q 59.00900900900899 53.49099099099102 59.23423423423422 53.60360360360363 Q 59.45945945945945 53.71621621621624 59.57207207207206 53.94144144144146 Q 59.68468468468467 54.166666666666686 59.79729729729728 54.391891891891916 Q 59.909909909909885 54.61711711711715 60.02252252252249 54.61711711711715 Q 60.1351351351351 54.61711711711715 60.1351351351351 54.729729729729755 Q 60.1351351351351 54.84234234234236 60.247747747747724 55.06756756756759 Q 60.360360360360346 55.292792792792824 60.472972972972954 55.630630630630655 Q 60.58558558558556 55.96846846846849 60.9234234234234 56.19369369369372 Q 61.26126126126124 56.41891891891895 61.37387387387385 56.64414414414417 Q 61.486486486486456 56.869369369369394 61.59909909909908 57.20720720720723 Q 61.7117117117117 57.54504504504507 61.93693693693692 57.770270270270295 Q 62.16216216216213 57.99549549549552 62.274774774774755 58.33333333333336 Q 62.38738738738738 58.671171171171196 62.612612612612594 59.12162162162164 Q 62.83783783783781 59.57207207207209 63.17567567567565 59.79729729729732 Q 63.51351351351349 60.02252252252255 63.62612612612611 60.58558558558561 Q 63.73873873873873 61.148648648648674 63.96396396396395 61.3738738738739 Q 64.18918918918916 61.59909909909912 64.30180180180177 61.824324324324344 Q 64.41441441441438 62.04954954954957 64.527027027027 62.387387387387406 Q 64.63963963963963 62.725225225225245 64.86486486486484 62.950450450450475 Q 65.09009009009006 63.175675675675706 65.31531531531529 63.288288288288314 Q 65.54054054054052 63.40090090090092 65.65315315315313 63.73873873873876 Q 65.76576576576574 64.0765765765766 65.99099099099097 64.52702702702706 Q 66.2162162162162 64.9774774774775 66.55405405405403 65.20270270270274 Q 66.89189189189187 65.42792792792795 67.00450450450448 65.54054054054056 Q 67.11711711711709 65.65315315315317 67.34234234234232 65.8783783783784 Q 67.56756756756755 66.10360360360363 67.68018018018016 66.32882882882885 Q 67.79279279279277 66.55405405405408 67.90540540540538 66.66666666666669 Q 68.01801801801798 66.77927927927931 68.35585585585582 67.00450450450452 Q 68.69369369369366 67.22972972972975 68.80630630630628 67.34234234234236 Q 68.9189189189189 67.45495495495497 69.03153153153151 67.56756756756758 Q 69.14414414414412 67.6801801801802 69.36936936936935 68.01801801801804 Q 69.59459459459458 68.35585585585588 69.8198198198198 68.5810810810811 Q 70.04504504504501 68.80630630630633 70.38288288288285 68.91891891891893 Q 70.72072072072069 69.03153153153156 70.83333333333331 69.14414414414418 Q 70.94594594594594 69.25675675675679 71.17117117117115 69.3693693693694 Q 71.39639639639637 69.481981981982 71.73423423423421 69.81981981981984 Q 72.07207207207205 70.15765765765768 72.29729729729728 70.38288288288291 Q 72.52252252252251 70.60810810810813 72.74774774774772 70.72072072072075 Q 72.97297297297294 70.83333333333336 73.08558558558556 70.94594594594597 Q 73.19819819819818 71.05855855855859 73.31081081081079 71.1711711711712 Q 73.4234234234234 71.2837837837838 73.87387387387385 71.73423423423426 Q 74.3243243243243 72.18468468468471 74.54954954954952 72.29729729729732 Q 74.77477477477476 72.40990990990993 74.88738738738736 72.52252252252254 Q 74.99999999999997 72.63513513513516 75.1126126126126 72.63513513513516 Q 75.22522522522522 72.63513513513516 75.33783783783782 72.63513513513516 Q 75.45045045045043 72.63513513513516 75.45045045045043 72.74774774774778 Q 75.45045045045043 72.86036036036039 75.56306306306304 72.86036036036039 Q 75.67567567567565 72.86036036036039 76.01351351351349 72.972972972973 Q 76.35135135135133 73.0855855855856 76.46396396396393 73.19819819819821 Q 76.57657657657654 73.31081081081084 76.80180180180177 73.42342342342344 Q 77.027027027027 73.53603603603605 77.25225225225223 73.87387387387389 Q 77.47747747747746 74.21171171171173 77.92792792792791 74.32432432432434 Q 78.37837837837836 74.43693693693695 78.49099099099097 74.43693693693695 Q 78.60360360360357 74.43693693693695 78.60360360360357 74.54954954954957 Q 78.60360360360357 74.66216216216219 78.8288288288288 74.7747747747748 Q 79.05405405405403 74.8873873873874 79.16666666666664 75.00000000000001 Q 79.27927927927925 75.11261261261262 79.39189189189187 75.11261261261262 Q 79.5045045045045 75.11261261261262 79.84234234234232 75.22522522522524 Q 80.18018018018014 75.33783783783787 80.29279279279277 75.33783783783787 Q 80.40540540540539 75.33783783783787 80.74324324324323 75.6756756756757 Q 81.08108108108107 76.01351351351354 81.19369369369367 76.12612612612615 Q 81.30630630630628 76.23873873873876 81.64414414414412 76.35135135135137 Q 81.98198198198196 76.46396396396398 82.09459459459457 76.46396396396398 Q 82.20720720720718 76.46396396396398 82.3198198198198 76.5765765765766 Q 82.43243243243242 76.68918918918922 82.65765765765764 76.80180180180183 Q 82.88288288288285 76.91441441441444 83.22072072072069 77.02702702702705 Q 83.55855855855853 77.13963963963965 83.67117117117115 77.13963963963965 Q 83.78378378378378 77.13963963963965 84.00900900900899 77.36486486486488 Q 84.23423423423421 77.59009009009011 84.34684684684682 77.59009009009011 Q 84.45945945945942 77.59009009009011 84.68468468468465 77.59009009009011 Q 84.90990990990989 77.59009009009011 85.0225225225225 77.59009009009011 Q 85.1351351351351 77.59009009009011 85.36036036036033 77.59009009009011 Q 85.58558558558556 77.59009009009011 85.81081081081079 77.70270270270272 Q 86.03603603603602 77.81531531531533 86.37387387387386 77.81531531531533 Q 86.7117117117117 77.81531531531533 87.04954954954954 77.81531531531533 Q 87.38738738738738 77.81531531531533 87.7252252252252 77.81531531531533 Q 88.06306306306303 77.81531531531533 88.40090090090087 77.81531531531533 Q 88.7387387387387 77.81531531531533 89.07657657657654 77.92792792792795 Q 89.41441441441438 78.04054054054058 89.527027027027 78.04054054054058 Q 89.63963963963963 78.04054054054058 89.75225225225223 78.04054054054058 Q 89.86486486486484 78.04054054054058 90.09009009009007 78.04054054054058 Q 90.3153153153153 78.04054054054058 90.65315315315314 78.04054054054058 Q 90.99099099099098 78.04054054054058 91.10360360360359 78.04054054054058 Q 91.2162162162162 78.04054054054058 91.3288288288288 78.04054054054058 Q 91.44144144144141 78.04054054054058 91.55405405405403 78.04054054054058 Q 91.66666666666666 78.04054054054058 91.77927927927927 78.04054054054058 Q 91.89189189189187 78.04054054054058 92.00450450450448 78.15315315315318 Q 92.11711711711709 78.26576576576579 92.34234234234232 78.26576576576579 Q 92.56756756756755 78.26576576576579 92.79279279279277 78.26576576576579 Q 93.01801801801798 78.26576576576579 93.1306306306306 78.26576576576579 Q 93.24324324324323 78.26576576576579 93.35585585585584 78.26576576576579 Q 93.46846846846844 78.26576576576579 93.58108108108105 78.26576576576579 Q 93.69369369369366 78.26576576576579 93.80630630630628 78.26576576576579 Q 93.9189189189189 78.26576576576579 94.03153153153151 78.26576576576579 Q 94.14414414414412 78.26576576576579 94.25675675675673 78.26576576576579 Q 94.36936936936934 78.26576576576579 94.59459459459457 78.3783783783784 L 94.8208198198198 78.49199099099101" stroke-linecap="round" />
</g>
<g transform="matrix(1 0 0 1 80.2927927928 49.5495495495)" id="O8De-q9n015GOLhguDuam"  >
<path style="stroke: rgb(0,0,0); stroke-width: 1; stroke-dasharray: none; stroke-linecap: round; stroke-dashoffset: 0; stroke-linejoin: round; stroke-miterlimit: 10; fill: none; fill-rule: nonzero; opacity: 1;"  transform=" translate(-80.2927927928, -49.5495495495)" d="M 60.35936036036035 55.51801801801804 Q 60.360360360360346 55.51801801801804 60.58558558558556 55.51801801801804 Q 60.81081081081078 55.51801801801804 61.26126126126124 55.51801801801804 Q 61.7117117117117 55.51801801801804 62.38738738738738 55.40540540540543 Q 63.063063063063055 55.292792792792824 63.62612612612611 55.292792792792824 Q 64.18918918918916 55.292792792792824 64.63963963963961 55.06756756756759 Q 65.09009009009006 54.84234234234236 65.65315315315313 54.84234234234236 Q 66.2162162162162 54.84234234234236 66.44144144144143 54.729729729729755 Q 66.66666666666666 54.61711711711715 67.1171171171171 54.61711711711715 Q 67.56756756756755 54.61711711711715 67.79279279279277 54.50450450450453 Q 68.01801801801798 54.391891891891916 68.1306306306306 54.2792792792793 Q 68.24324324324323 54.166666666666686 68.35585585585584 53.94144144144146 Q 68.46846846846844 53.71621621621624 68.80630630630628 53.490990990991016 Q 69.14414414414412 53.26576576576579 69.59459459459457 53.15315315315318 Q 70.04504504504501 53.04054054054056 70.38288288288285 52.70270270270272 Q 70.72072072072069 52.364864864864884 71.17117117117115 52.027027027027046 Q 71.62162162162161 51.68918918918921 71.84684684684683 51.463963963963984 Q 72.07207207207205 51.23873873873876 72.29729729729728 51.12612612612615 Q 72.52252252252251 51.013513513513544 72.86036036036035 50.675675675675706 Q 73.19819819819818 50.33783783783787 73.31081081081079 50.11261261261264 Q 73.4234234234234 49.887387387387406 73.76126126126124 49.66216216216218 Q 74.09909909909908 49.43693693693696 74.32432432432431 49.211711711711736 Q 74.54954954954954 48.98648648648651 74.77477477477476 48.8738738738739 Q 74.99999999999997 48.76126126126128 75.1126126126126 48.648648648648674 Q 75.22522522522522 48.536036036036066 75.33783783783782 48.19819819819823 Q 75.45045045045043 47.86036036036039 75.67567567567565 47.74774774774777 Q 75.90090090090087 47.63513513513516 76.1261261261261 47.52252252252255 Q 76.35135135135133 47.40990990990994 76.46396396396393 47.18468468468471 Q 76.57657657657654 46.95945945945948 76.80180180180177 46.84684684684687 Q 77.027027027027 46.734234234234265 77.25225225225223 46.509009009009034 Q 77.47747747747746 46.283783783783804 77.59009009009007 46.171171171171196 Q 77.70270270270268 46.05855855855859 77.81531531531529 45.94594594594597 Q 77.9279279279279 45.83333333333336 78.04054054054052 45.72072072072074 Q 78.15315315315314 45.60810810810813 78.49099099099098 45.49549549549552 Q 78.82882882882882 45.38288288288291 78.94144144144143 45.270270270270295 Q 79.05405405405403 45.15765765765768 79.39189189189187 44.932432432432456 Q 79.72972972972971 44.70720720720723 79.95495495495493 44.70720720720723 Q 80.18018018018014 44.70720720720723 80.40540540540538 44.48198198198201 Q 80.6306306306306 44.256756756756786 80.74324324324321 44.14414414414417 Q 80.85585585585582 44.031531531531556 80.96846846846844 43.91891891891894 Q 81.08108108108107 43.806306306306325 81.19369369369367 43.806306306306325 Q 81.30630630630628 43.806306306306325 81.41891891891889 43.806306306306325 Q 81.5315315315315 43.806306306306325 81.64414414414412 43.69369369369372 Q 81.75675675675674 43.58108108108111 81.86936936936935 43.58108108108111 Q 81.98198198198196 43.58108108108111 82.20720720720719 43.58108108108111 Q 82.43243243243242 43.58108108108111 82.65765765765764 43.58108108108111 Q 82.88288288288285 43.58108108108111 82.99549549549548 43.58108108108111 Q 83.1081081081081 43.58108108108111 83.33333333333331 43.58108108108111 Q 83.55855855855853 43.58108108108111 83.78378378378376 43.58108108108111 Q 84.00900900900899 43.58108108108111 84.45945945945944 43.58108108108111 Q 84.90990990990989 43.58108108108111 85.13513513513512 43.69369369369372 Q 85.36036036036035 43.806306306306325 85.47297297297295 43.91891891891894 Q 85.58558558558556 44.031531531531556 85.69819819819817 44.031531531531556 Q 85.81081081081078 44.031531531531556 86.03603603603601 44.031531531531556 Q 86.26126126126124 44.031531531531556 86.59909909909908 44.25675675675678 Q 86.93693693693692 44.481981981982 87.16216216216215 44.59459459459462 Q 87.38738738738738 44.70720720720723 87.49999999999999 44.932432432432456 Q 87.6126126126126 45.15765765765768 87.95045045045043 45.15765765765768 Q 88.28828828828827 45.15765765765768 88.40090090090088 45.15765765765768 Q 88.51351351351349 45.15765765765768 88.6261261261261 45.270270270270295 Q 88.7387387387387 45.38288288288291 89.07657657657654 45.608108108108134 Q 89.41441441441438 45.83333333333336 89.75225225225222 46.171171171171196 Q 90.09009009009006 46.509009009009034 90.20270270270268 46.62162162162165 Q 90.3153153153153 46.734234234234265 90.54054054054052 46.84684684684687 Q 90.76576576576574 46.95945945945948 90.87837837837836 47.072072072072096 Q 90.99099099099098 47.18468468468471 91.2162162162162 47.409909909909935 Q 91.44144144144141 47.63513513513516 91.77927927927925 47.972972972973 Q 92.11711711711709 48.310810810810835 92.34234234234232 48.42342342342345 Q 92.56756756756755 48.536036036036066 92.79279279279277 48.76126126126129 Q 93.01801801801798 48.98648648648651 93.35585585585582 49.211711711711736 Q 93.69369369369366 49.43693693693696 94.25675675675673 49.88738738738741 Q 94.8198198198198 50.33783783783787 94.9324324324324 50.450450450450475 Q 95.04504504504501 50.56306306306308 95.27027027027025 50.56306306306308 Q 95.49549549549548 50.56306306306308 95.60810810810808 50.56306306306308 Q 95.72072072072069 50.56306306306308 95.8333333333333 50.6756756756757 Q 95.94594594594591 50.788288288288314 96.05855855855853 50.788288288288314 Q 96.17117117117115 50.788288288288314 96.17117117117115 50.90090090090093 Q 96.17117117117115 51.013513513513544 96.28378378378376 51.013513513513544 Q 96.39639639639637 51.013513513513544 96.50900900900898 51.013513513513544 Q 96.62162162162159 51.013513513513544 96.62162162162159 51.12612612612615 Q 96.62162162162159 51.23873873873876 96.73423423423421 51.23873873873876 Q 96.84684684684683 51.23873873873876 96.95945945945944 51.23873873873876 Q 97.07207207207205 51.23873873873876 97.29729729729728 51.23873873873876 Q 97.52252252252251 51.23873873873876 97.63513513513512 51.351351351351376 Q 97.74774774774772 51.46396396396399 97.86036036036033 51.46396396396399 Q 97.97297297297294 51.46396396396399 98.08558558558556 51.46396396396399 Q 98.19819819819818 51.46396396396399 98.31081081081079 51.689189189189214 Q 98.4234234234234 51.91441441441444 98.53603603603601 51.91441441441444 Q 98.64864864864862 51.91441441441444 98.76126126126124 52.02702702702705 Q 98.87387387387386 52.13963963963967 99.09909909909908 52.13963963963967 Q 99.3243243243243 52.13963963963967 99.43693693693692 52.13963963963967 Q 99.54954954954954 52.13963963963967 99.66216216216215 52.252252252252276 Q 99.77477477477476 52.364864864864884 99.99999999999997 52.364864864864884 L 100.22622522522519 52.364864864864884" stroke-linecap="round" />
</g>
<g transform="matrix(1 0 0 1 71.1711711712 33.2207207207)" id="8m-DcjWRiW4k9zPRhafj6"  >
<path style="stroke: rgb(0,0,0); stroke-width: 1; stroke-dasharray: none; stroke-linecap: round; stroke-dashoffset: 0; stroke-linejoin: round; stroke-miterlimit: 10; fill: none; fill-rule: nonzero; opacity: 1;"  transform=" translate(-71.1711711712, -33.2207207207)" d="M 41.2152162162162 37.50000000000003 Q 41.216216216216196 37.50000000000003 41.328828828828804 37.50000000000003 Q 41.44144144144141 37.50000000000003 41.89189189189187 37.50000000000003 Q 42.342342342342334 37.50000000000003 42.56756756756755 37.50000000000003 Q 42.79279279279277 37.50000000000003 43.018018018018 37.50000000000003 Q 43.24324324324323 37.50000000000003 43.46846846846846 37.72522522522525 Q 43.69369369369369 37.950450450450475 44.03153153153151 37.950450450450475 Q 44.36936936936934 37.950450450450475 44.48198198198196 37.950450450450475 Q 44.59459459459458 37.950450450450475 44.8198198198198 37.950450450450475 Q 45.045045045045015 37.950450450450475 45.15765765765764 37.950450450450475 Q 45.27027027027026 37.950450450450475 45.6081081081081 37.950450450450475 Q 45.94594594594594 37.950450450450475 46.17117117117115 37.950450450450475 Q 46.39639639639637 37.950450450450475 46.6216216216216 37.950450450450475 Q 46.84684684684683 37.950450450450475 47.18468468468467 37.950450450450475 Q 47.52252252252251 37.950450450450475 47.860360360360346 37.83783783783786 Q 48.198198198198185 37.725225225225245 48.4234234234234 37.61261261261264 Q 48.64864864864862 37.50000000000003 48.986486486486456 37.38738738738741 Q 49.324324324324294 37.2747747747748 49.774774774774755 37.16216216216219 Q 50.225225225225216 37.04954954954958 50.45045045045043 37.04954954954958 Q 50.67567567567565 37.04954954954958 50.90090090090088 36.936936936936966 Q 51.12612612612611 36.82432432432435 51.46396396396395 36.711711711711736 Q 51.80180180180179 36.59909909909912 52.139639639639626 36.48648648648651 Q 52.477477477477464 36.373873873873904 52.92792792792791 36.148648648648674 Q 53.37837837837836 35.92342342342344 53.490990990990966 35.92342342342344 Q 53.603603603603574 35.92342342342344 53.828828828828804 35.92342342342344 Q 54.054054054054035 35.92342342342344 54.16666666666664 35.810810810810835 Q 54.27927927927925 35.69819819819823 54.50450450450448 35.69819819819823 Q 54.72972972972971 35.69819819819823 55.06756756756755 35.58558558558561 Q 55.40540540540539 35.472972972973 55.63063063063062 35.36036036036039 Q 55.85585585585585 35.24774774774778 56.193693693693675 35.135135135135165 Q 56.5315315315315 35.02252252252255 56.86936936936934 34.909909909909935 Q 57.207207207207176 34.79729729729732 57.43243243243241 34.79729729729732 Q 57.65765765765764 34.79729729729732 57.88288288288287 34.68468468468471 Q 58.1081081081081 34.5720720720721 58.333333333333314 34.34684684684687 Q 58.55855855855853 34.12162162162164 58.89639639639637 34.009009009009034 Q 59.23423423423421 33.896396396396426 59.45945945945944 33.896396396396426 Q 59.68468468468467 33.896396396396426 59.909909909909885 33.78378378378381 Q 60.1351351351351 33.671171171171196 60.47297297297294 33.55855855855859 Q 60.81081081081078 33.44594594594598 61.03603603603601 33.333333333333364 Q 61.26126126126124 33.22072072072075 61.48648648648647 33.108108108108134 Q 61.7117117117117 32.99549549549552 61.93693693693692 32.88288288288291 Q 62.16216216216213 32.7702702702703 62.612612612612594 32.7702702702703 Q 63.063063063063055 32.7702702702703 63.28828828828827 32.54504504504507 Q 63.51351351351349 32.31981981981984 63.73873873873872 32.20720720720723 Q 63.96396396396395 32.094594594594625 63.96396396396395 31.98198198198201 Q 63.96396396396395 31.869369369369394 64.30180180180179 31.869369369369394 Q 64.63963963963963 31.869369369369394 64.86486486486484 31.869369369369394 Q 65.09009009009006 31.869369369369394 65.20270270270268 31.756756756756786 Q 65.3153153153153 31.644144144144178 65.54054054054052 31.644144144144178 Q 65.76576576576574 31.644144144144178 66.10360360360357 31.531531531531563 Q 66.44144144144141 31.418918918918948 66.66666666666664 31.193693693693724 Q 66.89189189189187 30.9684684684685 67.22972972972971 30.855855855855886 Q 67.56756756756755 30.74324324324327 67.68018018018016 30.518018018018047 Q 67.79279279279277 30.292792792792824 68.24324324324321 30.18018018018021 Q 68.69369369369366 30.067567567567593 68.80630630630628 29.954954954954978 Q 68.9189189189189 29.842342342342363 69.25675675675674 29.842342342342363 Q 69.59459459459458 29.842342342342363 69.93243243243242 29.729729729729755 Q 70.27027027027026 29.617117117117147 70.49549549549548 29.50450450450453 Q 70.72072072072069 29.391891891891916 70.94594594594592 29.391891891891916 Q 71.17117117117115 29.391891891891916 71.6216216216216 29.279279279279308 Q 72.07207207207205 29.1666666666667 72.40990990990989 29.054054054054085 Q 72.74774774774772 28.94144144144147 72.97297297297295 28.94144144144147 Q 73.19819819819818 28.94144144144147 73.53603603603602 28.716216216216246 Q 73.87387387387386 28.490990990991023 74.09909909909908 28.490990990991023 Q 74.3243243243243 28.490990990991023 74.54954954954952 28.490990990991023 Q 74.77477477477476 28.490990990991023 75.1126126126126 28.490990990991023 Q 75.45045045045043 28.490990990991023 75.78828828828827 28.490990990991023 Q 76.12612612612611 28.490990990991023 76.46396396396395 28.490990990991023 Q 76.80180180180179 28.490990990991023 77.027027027027 28.490990990991023 Q 77.25225225225222 28.490990990991023 77.81531531531529 28.490990990991023 Q 78.37837837837836 28.490990990991023 78.94144144144143 28.490990990991023 Q 79.5045045045045 28.490990990991023 79.72972972972971 28.490990990991023 Q 79.95495495495493 28.490990990991023 80.29279279279277 28.490990990991023 Q 80.6306306306306 28.490990990991023 81.08108108108105 28.60360360360363 Q 81.5315315315315 28.71621621621624 81.98198198198196 28.71621621621624 Q 82.43243243243242 28.71621621621624 82.65765765765764 28.71621621621624 Q 82.88288288288285 28.71621621621624 83.22072072072069 28.828828828828854 Q 83.55855855855853 28.94144144144147 83.78378378378376 28.94144144144147 Q 84.00900900900899 28.94144144144147 84.23423423423421 28.94144144144147 Q 84.45945945945942 28.94144144144147 84.79729729729726 29.054054054054085 Q 85.1351351351351 29.1666666666667 85.36036036036033 29.1666666666667 Q 85.58558558558556 29.1666666666667 85.81081081081079 29.279279279279308 Q 86.03603603603602 29.391891891891916 86.14864864864863 29.391891891891916 Q 86.26126126126124 29.391891891891916 86.59909909909908 29.50450450450453 Q 86.93693693693692 29.617117117117147 87.04954954954952 29.617117117117147 Q 87.16216216216213 29.617117117117147 87.38738738738736 29.617117117117147 Q 87.6126126126126 29.617117117117147 87.83783783783781 29.617117117117147 Q 88.06306306306303 29.617117117117147 88.06306306306303 29.729729729729755 Q 88.06306306306303 29.842342342342363 88.40090090090087 29.842342342342363 Q 88.7387387387387 29.842342342342363 88.85135135135133 29.954954954954978 Q 88.96396396396395 30.067567567567593 89.07657657657656 30.067567567567593 Q 89.18918918918916 30.067567567567593 89.30180180180177 30.067567567567593 Q 89.41441441441438 30.067567567567593 89.63963963963961 30.292792792792817 Q 89.86486486486484 30.51801801801804 90.31531531531529 30.630630630630655 Q 90.76576576576574 30.74324324324327 90.99099099099097 30.74324324324327 Q 91.2162162162162 30.74324324324327 91.44144144144143 30.74324324324327 Q 91.66666666666666 30.74324324324327 91.77927927927927 30.74324324324327 Q 91.89189189189187 30.74324324324327 92.22972972972971 30.74324324324327 Q 92.56756756756755 30.74324324324327 92.68018018018016 30.74324324324327 Q 92.79279279279277 30.74324324324327 92.90540540540538 30.855855855855886 Q 93.01801801801798 30.9684684684685 93.1306306306306 30.9684684684685 Q 93.24324324324323 30.9684684684685 93.35585585585584 30.9684684684685 Q 93.46846846846844 30.9684684684685 93.58108108108105 30.9684684684685 Q 93.69369369369366 30.9684684684685 94.0315315315315 30.9684684684685 Q 94.36936936936934 30.9684684684685 94.70720720720718 30.9684684684685 Q 95.04504504504501 30.9684684684685 95.15765765765764 31.08108108108111 Q 95.27027027027026 31.193693693693717 95.38288288288287 31.193693693693717 Q 95.49549549549548 31.193693693693717 95.83333333333331 31.193693693693717 Q 96.17117117117115 31.193693693693717 96.39639639639637 31.193693693693717 Q 96.62162162162159 31.193693693693717 96.84684684684682 31.193693693693717 Q 97.07207207207205 31.193693693693717 97.18468468468465 31.193693693693717 Q 97.29729729729726 31.193693693693717 97.40990990990989 31.306306306306332 Q 97.52252252252251 31.418918918918948 97.86036036036035 31.418918918918948 Q 98.19819819819818 31.418918918918948 98.31081081081079 31.418918918918948 Q 98.4234234234234 31.418918918918948 98.53603603603601 31.418918918918948 Q 98.64864864864862 31.418918918918948 98.76126126126124 31.531531531531563 Q 98.87387387387386 31.644144144144178 98.98648648648647 31.644144144144178 Q 99.09909909909908 31.644144144144178 99.21171171171169 31.644144144144178 Q 99.3243243243243 31.644144144144178 99.43693693693692 31.644144144144178 Q 99.54954954954954 31.644144144144178 99.77477477477476 31.644144144144178 Q 99.99999999999997 31.644144144144178 100.11261261261258 31.644144144144178 Q 100.22522522522519 31.644144144144178 100.33783783783781 31.644144144144178 Q 100.45045045045043 31.644144144144178 100.56306306306304 31.644144144144178 Q 100.67567567567565 31.644144144144178 100.90090090090088 31.644144144144178 L 101.12712612612611 31.644144144144178" stroke-linecap="round" />
</g>
</svg>