<?xml version="1.0" encoding="UTF-8" standalone="no" ?>
<!DOCTYPE svg PUBLIC "-//W3C//DTD SVG 1.1//EN" "http://www.w3.org/Graphics/SVG/1.1/DTD/svg11.dtd">
<svg xmlns="http://www.w3.org/2000/svg" xmlns:xlink="http://www.w3.org/1999/xlink" version="1.1" width="100" height="100" viewBox="0 0 100 100" xml:space="preserve">
<desc>Created with Fabric.js 5.3.0</desc>
<defs>
</defs>
<g transform="matrix(1 0 0 1 20.25 52.75)" id="Hjxx4DXaGJJwagmQEgMge"  >
<path style="stroke: rgb(0,0,0); stroke-width: 1; stroke-dasharray: none; stroke-linecap: round; stroke-dashoffset: 0; stroke-linejoin: round; stroke-miterlimit: 10; fill: none; fill-rule: nonzero; opacity: 1;"  transform=" translate(-20.25, -52.75)" d="M 9.498999999999716 73.74999999999977 Q 9.499999999999716 73.74999999999977 20.249999999999716 52.74999999999977 L 31.000999999999717 31.749999999999773" stroke-linecap="round" />
</g>
<g transform="matrix(1 0 0 1 31 31.75)" id="ygWD8P7JSQSfsPqly2sqS"  >
<path style="stroke: rgb(0,0,0); stroke-width: 1; stroke-dasharray: none; stroke-linecap: round; stroke-dashoffset: 0; stroke-linejoin: round; stroke-miterlimit: 10; fill: none; fill-rule: nonzero; opacity: 1;"  transform=" translate(-31, -31.75)" d="M 30.998999999999715 31.749999999999773 L 31.000999999999717 31.749999999999773" stroke-linecap="round" />
</g>
<g transform="matrix(1 0 0 1 31 31.9)" id="lXgAmrQYmRm5aoIScDXrK"  >
<path style="stroke: rgb(0,0,0); stroke-width: 1; stroke-dasharray: none; stroke-linecap: round; stroke-dashoffset: 0; stroke-linejoin: round; stroke-miterlimit: 10; fill: none; fill-rule: nonzero; opacity: 1;"  transform=" translate(-31, -31.9)" d="M 30.998999999999885 31.899999999999906 L 31.000999999999888 31.899999999999906" stroke-linecap="round" />
</g>
<g transform="matrix(1 0 0 1 34.7 45.9)" id="pi-cIAxmi8A1_5Ihswfrv"  >
<path style="stroke: rgb(0,0,0); stroke-width: 1; stroke-dasharray: none; stroke-linecap: round; stroke-dashoffset: 0; stroke-linejoin: round; stroke-miterlimit: 10; fill: none; fill-rule: nonzero; opacity: 1;"  transform=" translate(-34.7, -45.9)" d="M 30.798999999999882 32.09999999999991 Q 30.799999999999883 32.09999999999991 34.69999999999988 45.89999999999991 L 38.60099999999988 59.69999999999992" stroke-linecap="round" />
</g>
<g transform="matrix(1 0 0 1 47.3 41)" id="j41kZMGDPWgVg2hIJyvPS"  >
<path style="stroke: rgb(0,0,0); stroke-width: 1; stroke-dasharray: none; stroke-linecap: round; stroke-dashoffset: 0; stroke-linejoin: round; stroke-miterlimit: 10; fill: none; fill-rule: nonzero; opacity: 1;"  transform=" translate(-47.3, -41)" d="M 38.39899999999988 59.69999999999992 Q 38.39999999999988 59.69999999999992 47.299999999999876 40.999999999999915 L 56.20099999999987 22.299999999999912" stroke-linecap="round" />
</g>
<g transform="matrix(1 0 0 1 58.9 32.8)" id="0deGePhd-GUJxNIBcgCms"  >
<path style="stroke: rgb(0,0,0); stroke-width: 1; stroke-dasharray: none; stroke-linecap: round; stroke-dashoffset: 0; stroke-linejoin: round; stroke-miterlimit: 10; fill: none; fill-rule: nonzero; opacity: 1;"  transform=" translate(-58.9, -32.8)" d="M 56.19899999999988 22.299999999999912 Q 56.199999999999875 22.299999999999912 58.89999999999988 32.79999999999991 L 61.60099999999988 43.29999999999991" stroke-linecap="round" />
</g>
<g transform="matrix(1 0 0 1 64 38.3)" id="xMZ21AZen-u_JUCalxGjG"  >
<path style="stroke: rgb(0,0,0); stroke-width: 1; stroke-dasharray: none; stroke-linecap: round; stroke-dashoffset: 0; stroke-linejoin: round; stroke-miterlimit: 10; fill: none; fill-rule: nonzero; opacity: 1;"  transform=" translate(-64, -38.3)" d="M 61.59899999999988 43.29999999999991 Q 61.59999999999988 43.29999999999991 63.999999999999886 38.29999999999991 L 66.4009999999999 33.29999999999991" stroke-linecap="round" />
</g>
<g transform="matrix(1 0 0 1 75.6 54.1)" id="mWo6lYhc-rdBiq6UYD8o9"  >
<path style="stroke: rgb(0,0,0); stroke-width: 1; stroke-dasharray: none; stroke-linecap: round; stroke-dashoffset: 0; stroke-linejoin: round; stroke-miterlimit: 10; fill: none; fill-rule: nonzero; opacity: 1;"  transform=" translate(-75.6, -54.1)" d="M 66.59899999999988 33.29999999999991 Q 66.59999999999988 33.29999999999991 75.59999999999988 54.09999999999991 L 84.60099999999989 74.8999999999999" stroke-linecap="round" />
</g>
</svg>