<?xml version="1.0" encoding="UTF-8" standalone="no" ?>
<!DOCTYPE svg PUBLIC "-//W3C//DTD SVG 1.1//EN" "http://www.w3.org/Graphics/SVG/1.1/DTD/svg11.dtd">
<svg xmlns="http://www.w3.org/2000/svg" xmlns:xlink="http://www.w3.org/1999/xlink" version="1.1" width="100" height="100" viewBox="0 0 100 100" xml:space="preserve">
<desc>Created with Fabric.js 5.3.0</desc>
<defs>
</defs>
<g transform="matrix(1 0 0 1 -57.1829405163 198.9898989899)" id="JjTi0T8I3RAHRg3b7UHBt"  >
<path style="stroke: rgb(0,0,0); stroke-width: 1; stroke-dasharray: none; stroke-linecap: round; stroke-dashoffset: 0; stroke-linejoin: round; stroke-miterlimit: 10; fill: none; fill-rule: nonzero; opacity: 1;"  transform=" translate(57.1829405163, -198.9898989899)" d="M -57.18394051627384 198.98989898989902 L -57.18194051627385 198.98989898989902" stroke-linecap="round" />
</g>
<g transform="matrix(1 0 0 1 22.972972973 76.6216216216)" id="x7Hd6xNYCzLoGxWJn8k_4"  >
<path style="stroke: rgb(0,0,0); stroke-width: 1; stroke-dasharray: none; stroke-linecap: round; stroke-dashoffset: 0; stroke-linejoin: round; stroke-miterlimit: 10; fill: none; fill-rule: nonzero; opacity: 1;"  transform=" translate(-22.972972973, -76.6216216216)" d="M 22.971972972972967 76.62162162162167 L 22.97397297297297 76.62162162162167" stroke-linecap="round" />
</g>
<g transform="matrix(1 0 0 1 26.4864864865 75.8108108108)" id="RPsZeogDBQEd1zBAIzyDq"  >
<path style="stroke: rgb(0,0,0); stroke-width: 1; stroke-dasharray: none; stroke-linecap: round; stroke-dashoffset: 0; stroke-linejoin: round; stroke-miterlimit: 10; fill: none; fill-rule: nonzero; opacity: 1;"  transform=" translate(-26.4864864865, -75.8108108108)" d="M 22.70170270270265 76.62162162162167 Q 22.702702702702652 76.62162162162167 22.837837837837796 76.62162162162167 Q 22.97297297297294 76.62162162162167 23.10810810810807 76.62162162162167 Q 23.2432432432432 76.62162162162167 23.378378378378343 76.62162162162167 Q 23.513513513513487 76.62162162162167 23.648648648648617 76.62162162162167 Q 23.783783783783747 76.62162162162167 23.918918918918877 76.62162162162167 Q 24.054054054054006 76.62162162162167 24.18918918918915 76.62162162162167 Q 24.324324324324294 76.62162162162167 24.324324324324294 76.48648648648653 Q 24.324324324324294 76.35135135135138 24.459459459459424 75.94594594594598 Q 24.594594594594554 75.54054054054058 24.999999999999957 75.40540540540545 Q 25.40540540540536 75.27027027027032 25.40540540540536 75.13513513513517 Q 25.40540540540536 75.00000000000003 25.540540540540505 75.00000000000003 Q 25.67567567567565 75.00000000000003 26.081081081081052 75.00000000000003 Q 26.486486486486456 75.00000000000003 26.621621621621586 75.00000000000003 Q 26.756756756756715 75.00000000000003 27.297297297297263 75.00000000000003 Q 27.83783783783781 75.00000000000003 28.243243243243214 75.13513513513517 Q 28.648648648648617 75.27027027027032 28.783783783783747 75.40540540540545 Q 28.918918918918877 75.54054054054058 29.32432432432428 75.54054054054058 Q 29.729729729729684 75.54054054054058 29.864864864864828 75.54054054054058 Q 29.99999999999997 75.54054054054058 30.1351351351351 75.81081081081085 L 30.271270270270232 76.08208108108113" stroke-linecap="round" />
</g>
<g transform="matrix(1 0 0 1 49.3243243243 65.5405405405)" id="8_JFJgY8605knOz4Re4-n"  >
<path style="stroke: rgb(0,0,0); stroke-width: 1; stroke-dasharray: none; stroke-linecap: round; stroke-dashoffset: 0; stroke-linejoin: round; stroke-miterlimit: 10; fill: none; fill-rule: nonzero; opacity: 1;"  transform=" translate(-49.3243243243, -65.5405405405)" d="M 44.3233243243243 66.89189189189193 Q 44.324324324324294 66.89189189189193 44.324324324324294 66.7567567567568 Q 44.324324324324294 66.62162162162167 44.459459459459424 66.62162162162167 Q 44.594594594594554 66.62162162162167 44.86486486486483 66.48648648648653 Q 45.1351351351351 66.35135135135138 45.27027027027023 66.21621621621625 Q 45.40540540540536 66.08108108108112 45.540540540540505 66.08108108108112 Q 45.67567567567565 66.08108108108112 45.81081081081078 66.08108108108112 Q 45.94594594594591 66.08108108108112 45.94594594594591 65.945945945946 Q 45.94594594594591 65.81081081081086 46.08108108108104 65.81081081081086 Q 46.21621621621617 65.81081081081086 46.48648648648644 65.27027027027032 Q 46.756756756756715 64.72972972972977 47.02702702702699 64.72972972972977 Q 47.29729729729726 64.72972972972977 47.43243243243239 64.72972972972977 Q 47.56756756756752 64.72972972972977 47.702702702702666 64.59459459459464 Q 47.83783783783781 64.45945945945951 48.10810810810807 64.45945945945951 Q 48.37837837837833 64.45945945945951 48.37837837837833 64.32432432432437 Q 48.37837837837833 64.18918918918922 48.51351351351347 64.18918918918922 Q 48.64864864864862 64.18918918918922 48.78378378378375 64.18918918918922 Q 48.91891891891888 64.18918918918922 49.05405405405402 64.18918918918922 Q 49.189189189189165 64.18918918918922 49.459459459459424 64.18918918918922 Q 49.729729729729684 64.18918918918922 49.86486486486483 64.18918918918922 Q 49.99999999999997 64.18918918918922 50.1351351351351 64.18918918918922 Q 50.27027027027023 64.18918918918922 50.40540540540536 64.18918918918922 Q 50.54054054054049 64.18918918918922 50.675675675675635 64.18918918918922 Q 50.81081081081078 64.18918918918922 50.81081081081078 64.32432432432437 Q 50.81081081081078 64.45945945945951 50.94594594594591 64.45945945945951 Q 51.08108108108104 64.45945945945951 51.48648648648644 64.45945945945951 Q 51.891891891891845 64.45945945945951 51.891891891891845 64.72972972972977 Q 51.891891891891845 65.00000000000003 52.02702702702699 65.13513513513517 Q 52.16216216216213 65.27027027027032 52.29729729729726 65.27027027027032 Q 52.43243243243239 65.27027027027032 52.56756756756752 65.27027027027032 Q 52.70270270270265 65.27027027027032 52.837837837837796 65.40540540540545 Q 52.97297297297294 65.54054054054058 53.10810810810807 65.54054054054058 Q 53.2432432432432 65.54054054054058 53.78378378378375 65.54054054054058 L 54.32532432432429 65.54054054054058" stroke-linecap="round" />
</g>
<g transform="matrix(1 0 0 1 71.2162162162 81.6221216216)" id="aYGx5UESIrR_W86C_vFRN"  >
<path style="stroke: rgb(0,0,0); stroke-width: 1; stroke-dasharray: none; stroke-linecap: round; stroke-dashoffset: 0; stroke-linejoin: round; stroke-miterlimit: 10; fill: none; fill-rule: nonzero; opacity: 1;"  transform=" translate(-71.2162162162, -81.6221216216)" d="M 62.701702702702626 83.10810810810815 Q 62.702702702702624 83.10810810810815 62.83783783783777 83.10810810810815 Q 62.97297297297291 83.10810810810815 63.378378378378315 83.10810810810815 Q 63.78378378378372 83.10810810810815 64.45945945945938 82.70270270270275 Q 65.13513513513504 82.29729729729735 65.94594594594585 82.1621621621622 Q 66.75675675675666 82.02702702702706 67.43243243243234 81.89189189189193 Q 68.10810810810801 81.7567567567568 68.91891891891882 81.48648648648653 Q 69.72972972972963 81.21621621621625 70.27027027027017 81.08108108108112 Q 70.81081081081072 80.945945945946 71.35135135135125 80.67567567567572 Q 71.89189189189179 80.40540540540545 72.02702702702693 80.40540540540545 Q 72.16216216216208 80.40540540540545 72.2972972972972 80.40540540540545 Q 72.43243243243234 80.40540540540545 72.56756756756748 80.40540540540545 Q 72.70270270270262 80.40540540540545 73.10810810810803 80.40540540540545 Q 73.51351351351343 80.40540540540545 73.78378378378369 80.27027027027032 Q 74.05405405405395 80.13513513513519 74.32432432432422 80.13513513513519 Q 74.5945945945945 80.13513513513519 74.72972972972964 80.13513513513519 Q 74.86486486486478 80.13513513513519 74.99999999999991 80.13513513513519 Q 75.13513513513504 80.13513513513519 75.27027027027017 80.13513513513519 Q 75.4054054054053 80.13513513513519 75.54054054054045 80.13513513513519 Q 75.67567567567559 80.13513513513519 75.81081081081072 80.54054054054059 Q 75.94594594594585 80.945945945946 76.21621621621613 81.08108108108112 Q 76.4864864864864 81.21621621621625 76.62162162162153 81.48648648648653 Q 76.75675675675666 81.7567567567568 76.8918918918918 81.7567567567568 Q 77.02702702702695 81.7567567567568 77.16216216216208 81.89189189189193 Q 77.2972972972972 82.02702702702706 77.43243243243234 82.02702702702706 Q 77.56756756756747 82.02702702702706 77.70270270270261 82.1621621621622 Q 77.83783783783775 82.29729729729735 77.97297297297288 82.29729729729735 Q 78.10810810810801 82.29729729729735 78.37837837837829 82.29729729729735 Q 78.64864864864856 82.29729729729735 78.78378378378369 82.56756756756761 Q 78.91891891891882 82.83783783783787 79.05405405405396 82.83783783783787 Q 79.18918918918911 82.83783783783787 79.32432432432424 82.83783783783787 Q 79.45945945945937 82.83783783783787 79.5945945945945 82.97297297297301 L 79.73072972972963 83.10910810810816" stroke-linecap="round" />
</g>
<g transform="matrix(1 0 0 1 18.1081081081 52.1626621622)" id="oaRd4JPwDPup0k1JWXD6q"  >
<path style="stroke: rgb(0,0,0); stroke-width: 1; stroke-dasharray: none; stroke-linecap: round; stroke-dashoffset: 0; stroke-linejoin: round; stroke-miterlimit: 10; fill: none; fill-rule: nonzero; opacity: 1;"  transform=" translate(-18.1081081081, -52.1626621622)" d="M 5.404405405405275 56.62262162162167 Q 5.405405405405276 56.62162162162167 5.675675675675549 56.48648648648653 Q 5.945945945945823 56.35135135135138 6.6216216216215 56.08108108108112 Q 7.2972972972971775 55.810810810810864 7.837837837837711 55.405405405405446 Q 8.378378378378244 55.00000000000003 9.054054054053921 54.72972972972977 Q 9.729729729729598 54.45945945945951 10.135135135135002 54.324324324324365 Q 10.540540540540405 54.18918918918922 10.945945945945809 53.91891891891895 Q 11.351351351351212 53.648648648648674 11.75675675675663 53.24324324324327 Q 12.162162162162048 52.83783783783787 12.432432432432307 52.83783783783787 Q 12.702702702702567 52.83783783783787 13.108108108107984 52.56756756756761 Q 13.513513513513402 52.29729729729735 13.918918918918806 52.027027027027074 Q 14.324324324324209 51.7567567567568 14.729729729729613 51.621621621621664 Q 15.135135135135016 51.48648648648653 15.67567567567555 51.08108108108112 Q 16.216216216216083 50.67567567567572 16.486486486486356 50.54054054054058 Q 16.75675675675663 50.405405405405446 17.297297297297177 50.27027027027031 Q 17.837837837837725 50.13513513513517 18.513513513513388 49.864864864864906 Q 19.18918918918905 49.59459459459464 19.864864864864728 49.324324324324365 Q 20.540540540540405 49.05405405405409 20.945945945945823 48.783783783783825 Q 21.35135135135124 48.51351351351356 21.891891891891774 48.37837837837842 Q 22.432432432432307 48.243243243243285 22.83783783783771 47.97297297297301 Q 23.243243243243114 47.70270270270274 23.378378378378258 47.70270270270274 Q 23.513513513513402 47.70270270270274 24.054054054053935 47.70270270270274 Q 24.59459459459447 47.70270270270274 24.7297297297296 47.70270270270274 Q 24.864864864864728 47.70270270270274 24.999999999999872 47.70270270270274 Q 25.135135135135016 47.70270270270274 25.40540540540529 47.837837837837874 Q 25.675675675675564 47.97297297297301 25.945945945945823 48.10810810810815 Q 26.216216216216083 48.243243243243285 26.621621621621486 48.64864864864869 Q 27.02702702702689 49.05405405405409 27.162162162162033 49.324324324324365 Q 27.297297297297177 49.59459459459464 27.56756756756745 50.27027027027031 Q 27.837837837837725 50.94594594594598 27.972972972972855 51.21621621621625 Q 28.108108108107984 51.48648648648653 28.378378378378258 51.75675675675679 Q 28.648648648648532 52.02702702702706 28.91891891891879 52.162162162162204 Q 29.18918918918905 52.29729729729735 29.18918918918905 52.43243243243248 Q 29.18918918918905 52.56756756756761 29.459459459459325 52.97297297297301 Q 29.7297297297296 53.378378378378414 29.864864864864742 53.513513513513544 Q 29.999999999999886 53.648648648648674 30.135135135135016 53.648648648648674 Q 30.270270270270146 53.648648648648674 30.54054054054042 53.78378378378382 L 30.811810810810695 53.91991891891896" stroke-linecap="round" />
</g>
<g transform="matrix(1 0 0 1 66.7567567568 52.1626621622)" id="9wUszPwaxsHjb6mHAwdLW"  >
<path style="stroke: rgb(0,0,0); stroke-width: 1; stroke-dasharray: none; stroke-linecap: round; stroke-dashoffset: 0; stroke-linejoin: round; stroke-miterlimit: 10; fill: none; fill-rule: nonzero; opacity: 1;"  transform=" translate(-66.7567567568, -52.1626621622)" d="M 57.02602702702689 52.568567567567605 Q 57.02702702702689 52.56756756756761 57.16216216216202 52.43243243243248 Q 57.29729729729715 52.29729729729735 57.70270270270255 52.162162162162204 Q 58.108108108107956 52.02702702702706 58.51351351351336 51.89189189189193 Q 58.91891891891876 51.7567567567568 59.59459459459444 51.48648648648653 Q 60.27027027027012 51.21621621621625 60.810810810810665 50.81081081081085 Q 61.35135135135121 50.405405405405446 62.027027027026875 50.13513513513517 Q 62.70270270270254 49.8648648648649 63.108108108107956 49.72972972972977 Q 63.513513513513374 49.59459459459464 63.78378378378363 49.4594594594595 Q 64.05405405405389 49.324324324324365 64.59459459459444 48.91891891891896 Q 65.13513513513499 48.51351351351356 65.27027027027012 48.37837837837842 Q 65.40540540540525 48.243243243243285 65.81081081081065 48.243243243243285 Q 66.21621621621605 48.243243243243285 66.62162162162147 48.243243243243285 Q 67.02702702702689 48.243243243243285 67.29729729729715 48.243243243243285 Q 67.56756756756741 48.243243243243285 67.97297297297281 48.64864864864869 Q 68.37837837837822 49.05405405405409 68.78378378378363 49.18918918918923 Q 69.18918918918905 49.324324324324365 69.59459459459445 49.72972972972977 Q 69.99999999999986 50.13513513513517 70.40540540540526 50.67567567567571 Q 70.81081081081066 51.21621621621625 71.3513513513512 51.62162162162166 Q 71.89189189189173 52.02702702702706 73.51351351351336 53.513513513513544 Q 75.13513513513499 55.00000000000003 75.54054054054039 55.405405405405446 Q 75.9459459459458 55.810810810810864 76.08108108108092 55.810810810810864 Q 76.21621621621605 55.810810810810864 76.3513513513512 55.945945945945994 L 76.48748648648635 56.08208108108112" stroke-linecap="round" />
</g>
<g transform="matrix(1 0 0 1 47.027027027 35.5410405405)" id="4soctdUd86ySsKzy-F8jk"  >
<path style="stroke: rgb(0,0,0); stroke-width: 1; stroke-dasharray: none; stroke-linecap: round; stroke-dashoffset: 0; stroke-linejoin: round; stroke-miterlimit: 10; fill: none; fill-rule: nonzero; opacity: 1;"  transform=" translate(-47.027027027, -35.5410405405)" d="M 36.485486486486344 39.05505405405409 Q 36.48648648648634 39.05405405405409 36.62162162162147 38.918918918918955 Q 36.7567567567566 38.78378378378382 37.43243243243228 38.378378378378414 Q 38.108108108107956 37.97297297297301 38.51351351351336 37.56756756756761 Q 38.91891891891876 37.162162162162204 39.72972972972957 36.75675675675679 Q 40.54054054054038 36.35135135135138 41.3513513513512 35.94594594594598 Q 42.16216216216202 35.540540540540576 42.70270270270255 35.13513513513517 Q 43.243243243243086 34.72972972972977 43.91891891891876 34.59459459459463 Q 44.59459459459444 34.459459459459495 44.999999999999844 34.05405405405409 Q 45.40540540540525 33.64864864864869 46.081081081080924 33.378378378378414 Q 46.7567567567566 33.10810810810814 47.162162162162005 32.97297297297301 Q 47.56756756756741 32.83783783783788 48.108108108107956 32.702702702702744 Q 48.6486486486485 32.56756756756761 48.91891891891878 32.43243243243247 Q 49.18918918918905 32.297297297297334 49.32432432432418 32.1621621621622 Q 49.45945945945931 32.02702702702706 49.59459459459444 32.02702702702706 Q 49.72972972972957 32.02702702702706 49.864864864864714 32.02702702702706 Q 49.99999999999986 32.02702702702706 50.40540540540526 32.02702702702706 Q 50.810810810810665 32.02702702702706 51.21621621621607 32.1621621621622 Q 51.62162162162147 32.297297297297334 52.162162162162005 32.70270270270274 Q 52.70270270270254 33.10810810810814 52.97297297297281 33.64864864864868 Q 53.243243243243086 34.18918918918922 53.64864864864849 34.459459459459495 Q 54.05405405405389 34.72972972972977 54.32432432432417 35.13513513513517 Q 54.59459459459444 35.540540540540576 54.999999999999844 35.81081081081085 Q 55.40540540540525 36.08108108108112 55.67567567567552 36.35135135135139 Q 55.945945945945795 36.62162162162166 56.21621621621607 36.89189189189193 Q 56.48648648648634 37.162162162162204 57.027027027026875 37.162162162162204 L 57.568567567567406 37.162162162162204" stroke-linecap="round" />
</g>
<g transform="matrix(1 0 0 1 80.4054054054 36.8923918919)" id="y7FYUL7cNaeERkT9Dnqie"  >
<path style="stroke: rgb(0,0,0); stroke-width: 1; stroke-dasharray: none; stroke-linecap: round; stroke-dashoffset: 0; stroke-linejoin: round; stroke-miterlimit: 10; fill: none; fill-rule: nonzero; opacity: 1;"  transform=" translate(-80.4054054054, -36.8923918919)" d="M 72.43143243243225 37.1631621621622 Q 72.43243243243225 37.162162162162204 72.83783783783764 36.89189189189193 Q 73.24324324324303 36.62162162162166 73.5135135135133 36.21621621621625 Q 73.78378378378358 35.81081081081085 74.45945945945925 35.405405405405446 Q 75.13513513513493 35.00000000000004 75.54054054054033 34.864864864864906 Q 75.94594594594574 34.72972972972977 76.62162162162141 34.18918918918923 Q 77.29729729729709 33.64864864864869 77.43243243243222 33.51351351351355 Q 77.56756756756735 33.378378378378414 77.83783783783763 33.378378378378414 Q 78.1081081081079 33.378378378378414 78.24324324324303 33.378378378378414 Q 78.37837837837816 33.378378378378414 78.64864864864843 33.24324324324328 Q 78.9189189189187 33.10810810810814 79.32432432432411 32.837837837837874 Q 79.72972972972951 32.56756756756761 79.99999999999979 32.56756756756761 Q 80.27027027027006 32.56756756756761 80.27027027027006 32.43243243243247 Q 80.27027027027006 32.297297297297334 80.40540540540519 32.297297297297334 Q 80.54054054054032 32.297297297297334 80.94594594594574 32.43243243243247 Q 81.35135135135116 32.56756756756761 81.89189189189169 32.702702702702744 Q 82.43243243243222 32.83783783783788 82.7027027027025 32.97297297297301 Q 82.97297297297277 33.10810810810814 83.24324324324304 33.51351351351355 Q 83.51351351351332 33.91891891891896 83.91891891891872 34.324324324324365 Q 84.32432432432412 34.72972972972977 84.5945945945944 35.540540540540576 Q 84.86486486486467 36.35135135135138 85.13513513513493 36.62162162162166 Q 85.40540540540519 36.89189189189193 85.54054054054033 37.297297297297334 Q 85.67567567567548 37.70270270270274 85.94594594594574 38.10810810810815 Q 86.216216216216 38.51351351351356 86.35135135135114 38.783783783783825 Q 86.48648648648629 39.05405405405409 86.62162162162143 39.324324324324365 Q 86.75675675675657 39.59459459459464 86.8918918918917 39.72972972972977 Q 87.02702702702683 39.8648648648649 87.16216216216196 40.13513513513517 Q 87.29729729729709 40.405405405405446 87.43243243243222 40.54054054054058 Q 87.56756756756735 40.67567567567572 87.97297297297277 41.08108108108112 L 88.37937837837819 41.487486486486524" stroke-linecap="round" />
</g>
<g transform="matrix(1 0 0 1 48.1081081081 84.8653648649)" id="K9fT53I1XzqytoAs8E4nR"  >
<path style="stroke: rgb(0,0,0); stroke-width: 1; stroke-dasharray: none; stroke-linecap: round; stroke-dashoffset: 0; stroke-linejoin: round; stroke-miterlimit: 10; fill: none; fill-rule: nonzero; opacity: 1;"  transform=" translate(-48.1081081081, -84.8653648649)" d="M 39.728729729729515 88.51451351351355 Q 39.72972972972951 88.51351351351354 39.86486486486466 88.51351351351354 Q 39.9999999999998 88.51351351351354 40.27027027027006 88.37837837837841 Q 40.54054054054032 88.24324324324328 40.94594594594574 87.70270270270274 Q 41.351351351351155 87.16216216216219 42.16216216216196 86.75675675675679 Q 42.97297297297277 86.35135135135138 43.64864864864845 85.6756756756757 Q 44.324324324324124 85.00000000000003 44.72972972972953 84.72972972972977 Q 45.13513513513493 84.45945945945951 45.675675675675464 84.0540540540541 Q 46.216216216216 83.6486486486487 46.756756756756545 83.10810810810815 Q 47.29729729729709 82.56756756756761 47.702702702702496 82.29729729729733 Q 48.1081081081079 82.02702702702706 48.5135135135133 81.89189189189193 Q 48.918918918918706 81.7567567567568 49.18918918918898 81.62162162162167 Q 49.459459459459254 81.48648648648654 49.59459459459438 81.48648648648654 Q 49.72972972972951 81.48648648648654 49.72972972972951 81.3513513513514 Q 49.72972972972951 81.21621621621625 49.86486486486466 81.21621621621625 Q 49.9999999999998 81.21621621621625 50.405405405405205 81.21621621621625 Q 50.81081081081061 81.21621621621625 51.08108108108088 81.3513513513514 Q 51.351351351351155 81.48648648648654 51.621621621621415 81.7567567567568 Q 51.891891891891675 82.02702702702706 52.43243243243222 82.70270270270274 Q 52.97297297297277 83.37837837837841 53.1081081081079 83.91891891891896 Q 53.24324324324303 84.45945945945951 53.37837837837817 85.00000000000004 Q 53.51351351351332 85.54054054054058 53.783783783783576 85.67567567567572 Q 54.054054054053836 85.81081081081086 54.18918918918898 86.21621621621627 Q 54.324324324324124 86.62162162162167 54.459459459459254 86.7567567567568 Q 54.59459459459438 86.89189189189193 54.86486486486466 86.89189189189193 Q 55.13513513513493 86.89189189189193 55.27027027027006 87.1621621621622 Q 55.40540540540519 87.43243243243248 55.40540540540519 87.56756756756761 Q 55.40540540540519 87.70270270270274 55.540540540540334 87.70270270270274 Q 55.67567567567548 87.70270270270274 55.81081081081061 87.83783783783788 Q 55.94594594594574 87.97297297297303 56.21621621621601 87.97297297297303 L 56.48748648648628 87.97297297297303" stroke-linecap="round" />
</g>
<g transform="matrix(1 0 0 1 21.2162162162 31.4869864865)" id="WzHxxsS-svJLJOvWlqAkN"  >
<path style="stroke: rgb(0,0,0); stroke-width: 1; stroke-dasharray: none; stroke-linecap: round; stroke-dashoffset: 0; stroke-linejoin: round; stroke-miterlimit: 10; fill: none; fill-rule: nonzero; opacity: 1;"  transform=" translate(-21.2162162162, -31.4869864865)" d="M 9.998999999999802 35.54154054054057 Q 9.999999999999801 35.540540540540576 10.13513513513493 35.540540540540576 Q 10.27027027027006 35.540540540540576 10.540540540540334 35.27027027027031 Q 10.810810810810608 35.00000000000004 11.621621621621415 34.72972972972977 Q 12.432432432432222 34.459459459459495 13.378378378378173 34.18918918918923 Q 14.324324324324124 33.91891891891896 15.27027027027006 33.243243243243285 Q 16.216216216215997 32.56756756756761 17.02702702702682 32.162162162162204 Q 17.83783783783764 31.7567567567568 18.648648648648447 31.486486486486527 Q 19.459459459459254 31.216216216216253 20.13513513513493 30.675675675675713 Q 20.810810810810608 30.135135135135172 21.35135135135114 29.864864864864906 Q 21.891891891891675 29.59459459459464 22.432432432432222 29.324324324324365 Q 22.97297297297277 29.05405405405409 23.378378378378173 28.918918918918955 Q 23.783783783783576 28.783783783783818 24.18918918918898 28.378378378378414 Q 24.594594594594383 27.97297297297301 24.864864864864657 27.837837837837874 Q 25.13513513513493 27.702702702702737 25.27027027027006 27.702702702702737 Q 25.40540540540519 27.702702702702737 25.540540540540334 27.702702702702737 Q 25.67567567567548 27.702702702702737 25.810810810810608 27.5675675675676 Q 25.945945945945738 27.432432432432464 26.081081081080868 27.432432432432464 Q 26.216216216215997 27.432432432432464 26.756756756756545 27.432432432432464 Q 27.297297297297092 27.432432432432464 27.567567567567366 27.702702702702737 Q 27.83783783783764 27.97297297297301 28.243243243243043 28.51351351351355 Q 28.648648648648447 29.05405405405409 29.05405405405385 29.459459459459495 Q 29.459459459459254 29.8648648648649 29.729729729729527 30.40540540540544 Q 29.9999999999998 30.94594594594598 30.405405405405205 31.216216216216253 Q 30.810810810810608 31.486486486486527 30.945945945945738 31.756756756756793 Q 31.081081081080868 32.02702702702706 31.35135135135114 32.1621621621622 Q 31.621621621621415 32.297297297297334 31.89189189189169 32.70270270270274 Q 32.16216216216196 33.10810810810814 32.29729729729709 33.24324324324328 L 32.43343243243222 33.37937837837841" stroke-linecap="round" />
</g>
<g transform="matrix(1 0 0 1 58.7837837838 19.0545540541)" id="bU3XnGg73ZG71WfZ9kbjv"  >
<path style="stroke: rgb(0,0,0); stroke-width: 1; stroke-dasharray: none; stroke-linecap: round; stroke-dashoffset: 0; stroke-linejoin: round; stroke-miterlimit: 10; fill: none; fill-rule: nonzero; opacity: 1;"  transform=" translate(-58.7837837838, -19.0545540541)" d="M 44.593594594594386 23.64964864864869 Q 44.59459459459438 23.648648648648688 44.86486486486466 23.648648648648688 Q 45.13513513513493 23.648648648648688 45.27027027027006 23.51351351351355 Q 45.40540540540519 23.378378378378414 45.675675675675464 23.243243243243278 Q 45.94594594594574 23.10810810810814 46.21621621621601 22.97297297297301 Q 46.486486486486285 22.83783783783788 46.89189189189169 22.702702702702744 Q 47.29729729729709 22.567567567567608 47.837837837837625 22.027027027027067 Q 48.37837837837816 21.486486486486527 48.918918918918706 21.35135135135139 Q 49.459459459459254 21.216216216216253 49.99999999999979 20.81081081081085 Q 50.54054054054032 20.405405405405446 50.94594594594574 20.135135135135172 Q 51.351351351351155 19.8648648648649 52.02702702702682 19.459459459459495 Q 52.70270270270248 19.05405405405409 53.37837837837816 18.783783783783818 Q 54.054054054053836 18.513513513513544 54.45945945945924 18.243243243243278 Q 54.86486486486464 17.97297297297301 55.13513513513492 17.837837837837874 Q 55.40540540540519 17.702702702702737 55.810810810810594 17.43243243243247 Q 56.216216216216 17.162162162162204 56.35135135135114 17.027027027027067 Q 56.486486486486285 16.89189189189193 56.75675675675656 16.756756756756793 Q 57.02702702702683 16.621621621621657 57.16216216216196 16.48648648648652 Q 57.29729729729709 16.351351351351383 57.567567567567366 16.351351351351383 Q 57.83783783783764 16.351351351351383 58.1081081081079 16.351351351351383 Q 58.37837837837816 16.351351351351383 58.5135135135133 16.216216216216253 Q 58.64864864864845 16.081081081081123 58.783783783783576 16.081081081081123 Q 58.918918918918706 16.081081081081123 59.18918918918898 15.945945945945986 Q 59.459459459459254 15.81081081081085 59.59459459459438 15.81081081081085 Q 59.72972972972951 15.81081081081085 59.86486486486466 15.675675675675713 Q 59.9999999999998 15.540540540540576 60.13513513513493 15.405405405405439 Q 60.27027027027006 15.270270270270302 60.540540540540334 15.270270270270302 Q 60.81081081081061 15.270270270270302 61.21621621621601 15.000000000000036 Q 61.621621621621415 14.729729729729769 61.756756756756545 14.729729729729769 Q 61.891891891891675 14.729729729729769 61.891891891891675 14.594594594594632 Q 61.891891891891675 14.459459459459495 62.02702702702682 14.459459459459495 Q 62.16216216216196 14.459459459459495 62.702702702702496 14.459459459459495 Q 63.24324324324303 14.459459459459495 63.783783783783576 14.729729729729769 Q 64.32432432432412 15.000000000000043 64.86486486486466 15.27027027027031 Q 65.40540540540519 15.540540540540576 65.8108108108106 15.675675675675713 Q 66.216216216216 15.81081081081085 66.75675675675654 16.081081081081116 Q 67.29729729729709 16.351351351351383 67.56756756756737 16.48648648648652 Q 67.83783783783764 16.621621621621657 68.1081081081079 16.756756756756793 Q 68.37837837837816 16.89189189189193 68.64864864864843 17.43243243243247 Q 68.9189189189187 17.97297297297301 69.32432432432411 18.378378378378414 Q 69.72972972972951 18.783783783783818 70.13513513513492 19.32432432432436 Q 70.54054054054032 19.8648648648649 70.67567567567546 20.135135135135172 Q 70.81081081081061 20.405405405405446 70.81081081081061 20.540540540540583 Q 70.81081081081061 20.67567567567572 70.94594594594574 20.945945945945986 Q 71.08108108108087 21.216216216216253 71.48648648648627 21.486486486486527 Q 71.89189189189167 21.7567567567568 72.02702702702682 21.89189189189193 Q 72.16216216216196 22.02702702702706 72.16216216216196 22.162162162162197 Q 72.16216216216196 22.297297297297334 72.29729729729709 22.43243243243247 Q 72.43243243243222 22.567567567567608 72.43243243243222 22.702702702702744 Q 72.43243243243222 22.83783783783788 72.7027027027025 22.83783783783788 L 72.97397297297277 22.83783783783788" stroke-linecap="round" />
</g>
<g transform="matrix(1 0 0 1 32.2972972973 15.2707702703)" id="4wb9jxMXGtvR09QzpFmGw"  >
<path style="stroke: rgb(0,0,0); stroke-width: 1; stroke-dasharray: none; stroke-linecap: round; stroke-dashoffset: 0; stroke-linejoin: round; stroke-miterlimit: 10; fill: none; fill-rule: nonzero; opacity: 1;"  transform=" translate(-32.2972972973, -15.2707702703)" d="M 19.458459459459252 18.514513513513545 Q 19.459459459459254 18.513513513513544 20.405405405405205 17.972972972973004 Q 21.351351351351155 17.432432432432464 21.89189189189169 17.162162162162197 Q 22.432432432432222 16.89189189189193 24.05405405405385 16.35135135135139 Q 25.67567567567548 15.81081081081085 27.162162162161962 15.405405405405446 Q 28.648648648648447 15.000000000000043 30.13513513513493 14.594594594594632 Q 31.621621621621415 14.189189189189221 35.405405405405205 13.10810810810814 Q 39.189189189188994 12.02702702702706 39.324324324324124 12.02702702702706 Q 39.459459459459254 12.02702702702706 39.59459459459438 12.02702702702706 Q 39.72972972972951 12.02702702702706 39.86486486486466 12.02702702702706 Q 39.9999999999998 12.02702702702706 40.405405405405205 12.02702702702706 Q 40.81081081081061 12.02702702702706 41.486486486486285 12.297297297297334 Q 42.16216216216196 12.567567567567608 42.567567567567366 12.837837837837874 Q 42.97297297297277 13.10810810810814 43.37837837837817 13.648648648648681 Q 43.783783783783576 14.189189189189221 44.05405405405385 14.594594594594632 Q 44.324324324324124 15.000000000000043 44.459459459459254 15.000000000000043 Q 44.59459459459438 15.000000000000043 44.59459459459438 15.135135135135172 Q 44.59459459459438 15.270270270270302 44.86486486486466 15.270270270270302 L 45.13613513513493 15.270270270270302" stroke-linecap="round" />
</g>
</svg>